.
..............................Site Info...........................

 -   http://www.scenetime.com  *_*   

Scenetime .Always on time . friendly online private torrent community ..

     We care to share . Join us on  http://www.scenetime.com 

    Be the first to get new release at  http://www.scenetime.com

        Seed back for speed


...................................NFO:.................................................[img]http://i.imgur.com/Zjgi2.png[/img]

[b]Project.X.2012.TS.XViD.AC3.ADTRG[/b]

3 high school seniors throw a birthday party to make a name for themselves. As the night progresses, things spiral out of control as word of the party spreads.  

[url]http://www.imdb.com/title/tt1636826/[/url]

Source Video -  Project.X.2012.CAM.XVID.INSPiRAL   Thanks
Source Line Audio - Dragon Exclusive, Thank you Bro ;)

Complete name                            : Project.X.2012.TS.XViD.AC3.ADTRG.avi
Format                                   : AVI
File size                                : 735 MiB
Duration                                 : 1h 17mn
Overall bit rate                         : 1 323 Kbps
Writing library                          : VirtualDub build 34703/release

Video
ID                                       : 0
Format                                   : MPEG-4 Visual
Codec ID                                 : XVID
Duration                                 : 1h 17mn
Bit rate                                 : 1 125 Kbps
Width                                    : 480 pixels
Height                                   : 272 pixels
Display aspect ratio                     : 16:9
Frame rate                               : 15.000 fps
Stream size                              : 625 MiB (85%)

Audio
ID                                       : 1
Format                                   : AC-3
Duration                                 : 1h 17mn
Bit rate                                 : 192 Kbps
Channel(s)                               : 2 channels
Channel positions                        : Front: L R
Sampling rate                            : 48.0 KHz
Bit depth                                : 16 bits
Compression mode                         : Lossy
Stream size                              : 106 MiB (14%)



Encoder - LiMeY

Notes - ok,first of not much options on Project X, INSPiRAL did a fine job considering that had nothing to work with, so used that, untouched. thanks to our Elite Line man. We synced this HQ line to the cam. 
awesome movie, needed line as a lot of bass and loud music through out.  oooh by the way did some one say HQ Line for John Carter ;)

[img]http://i.imgur.com/B3C1Y.png[/img]
[img]http://i.imgur.com/fjMVc.png[/img]
[img]http://i.imgur.com/lAAJ2.png[/img]



Don't fear the Atomic Dragon..... Embrace it  :)


Greetz to DragonMaster,cOOkies,Mr Geek,InFecTeD,Cush,NoWoRRiEs Rayne, Mr & Mrs IrNbRu and the rest of the crew

Respect to CM8,Goon,Hope,mSD,InfernO and maybe a few more ;)